<mxfile host="www.draw.io" modified="2019-11-21T07:58:40.882Z" agent="Mozilla/5.0 (Macintosh; Intel Mac OS X 10_14_6) AppleWebKit/537.36 (KHTML, like Gecko) Chrome/78.0.3904.97 Safari/537.36" etag="709uCCsWObJlvlAuyH9i" version="12.2.7" type="github" pages="1">
  <diagram id="jndEeYcsWg11ksJjrWFk" name="Page-1">
    <mxGraphModel dx="1759" dy="541" grid="1" gridSize="10" guides="1" tooltips="1" connect="1" arrows="1" fold="1" page="1" pageScale="1" pageWidth="827" pageHeight="1169" math="0" shadow="0">
      <root>
        <mxCell id="0"/>
        <mxCell id="1" parent="0"/>
        <mxCell id="w7ByeeV-R5KUi5AX5EJL-1" value="DefaultHandle" style="swimlane;fontStyle=1;align=center;verticalAlign=top;childLayout=stackLayout;horizontal=1;startSize=26;horizontalStack=0;resizeParent=1;resizeParentMax=0;resizeLast=0;collapsible=1;marginBottom=0;" vertex="1" parent="1">
          <mxGeometry x="500" y="182" width="160" height="104" as="geometry"/>
        </mxCell>
        <mxCell id="w7ByeeV-R5KUi5AX5EJL-2" value="stack&#xa;value" style="text;strokeColor=none;fillColor=none;align=left;verticalAlign=top;spacingLeft=4;spacingRight=4;overflow=hidden;rotatable=0;points=[[0,0.5],[1,0.5]];portConstraint=eastwest;" vertex="1" parent="w7ByeeV-R5KUi5AX5EJL-1">
          <mxGeometry y="26" width="160" height="44" as="geometry"/>
        </mxCell>
        <mxCell id="w7ByeeV-R5KUi5AX5EJL-3" value="" style="line;strokeWidth=1;fillColor=none;align=left;verticalAlign=middle;spacingTop=-1;spacingLeft=3;spacingRight=3;rotatable=0;labelPosition=right;points=[];portConstraint=eastwest;" vertex="1" parent="w7ByeeV-R5KUi5AX5EJL-1">
          <mxGeometry y="70" width="160" height="8" as="geometry"/>
        </mxCell>
        <mxCell id="w7ByeeV-R5KUi5AX5EJL-4" value="recycle()" style="text;strokeColor=none;fillColor=none;align=left;verticalAlign=top;spacingLeft=4;spacingRight=4;overflow=hidden;rotatable=0;points=[[0,0.5],[1,0.5]];portConstraint=eastwest;" vertex="1" parent="w7ByeeV-R5KUi5AX5EJL-1">
          <mxGeometry y="78" width="160" height="26" as="geometry"/>
        </mxCell>
        <mxCell id="w7ByeeV-R5KUi5AX5EJL-5" value="Recycler&lt;T&gt;" style="swimlane;fontStyle=1;align=center;verticalAlign=top;childLayout=stackLayout;horizontal=1;startSize=26;horizontalStack=0;resizeParent=1;resizeParentMax=0;resizeLast=0;collapsible=1;marginBottom=0;" vertex="1" parent="1">
          <mxGeometry x="-20" y="100" width="240" height="86" as="geometry"/>
        </mxCell>
        <mxCell id="w7ByeeV-R5KUi5AX5EJL-6" value="+ field: type" style="text;strokeColor=none;fillColor=none;align=left;verticalAlign=top;spacingLeft=4;spacingRight=4;overflow=hidden;rotatable=0;points=[[0,0.5],[1,0.5]];portConstraint=eastwest;" vertex="1" parent="w7ByeeV-R5KUi5AX5EJL-5">
          <mxGeometry y="26" width="240" height="26" as="geometry"/>
        </mxCell>
        <mxCell id="w7ByeeV-R5KUi5AX5EJL-7" value="" style="line;strokeWidth=1;fillColor=none;align=left;verticalAlign=middle;spacingTop=-1;spacingLeft=3;spacingRight=3;rotatable=0;labelPosition=right;points=[];portConstraint=eastwest;" vertex="1" parent="w7ByeeV-R5KUi5AX5EJL-5">
          <mxGeometry y="52" width="240" height="8" as="geometry"/>
        </mxCell>
        <mxCell id="w7ByeeV-R5KUi5AX5EJL-8" value="newObject(Handle h)" style="text;strokeColor=none;fillColor=none;align=left;verticalAlign=top;spacingLeft=4;spacingRight=4;overflow=hidden;rotatable=0;points=[[0,0.5],[1,0.5]];portConstraint=eastwest;" vertex="1" parent="w7ByeeV-R5KUi5AX5EJL-5">
          <mxGeometry y="60" width="240" height="26" as="geometry"/>
        </mxCell>
      </root>
    </mxGraphModel>
  </diagram>
</mxfile>
